<svg width="88" height="15" viewBox="0 0 88 15" fill="none" xmlns="http://www.w3.org/2000/svg">
<path d="M72.351 0.751121C72.1438 0.751121 71.9754 0.582753 71.9754 0.37556C71.9754 0.168383 72.1438 0 72.351 0H74.7747C74.9416 0 75.083 0.10844 75.1316 0.259231L76.2524 3.18376H87.6245C87.8316 3.18376 88 3.35213 88 3.55932C88 3.60453 87.9921 3.64813 87.9774 3.68797L85.9946 10.2915C85.9459 10.4541 85.7967 10.5596 85.6352 10.5596V10.56H78.4417C78.2974 10.56 78.1662 10.6189 78.071 10.7141C77.9758 10.8093 77.9169 10.9405 77.9169 11.0848V11.095C77.9169 11.2399 77.9758 11.3714 78.0705 11.4661L78.0716 11.4651C78.1668 11.5603 78.2979 11.6192 78.4422 11.6192H84.9634C85.171 11.6192 85.3389 11.7876 85.3389 11.9948C85.3389 12.2019 85.1706 12.3703 84.9634 12.3703H78.4422C78.0908 12.3703 77.7716 12.227 77.5403 11.9963L77.5414 11.9952L77.5403 11.9942C77.3097 11.7635 77.1663 11.4448 77.1663 11.0944V11.0841C77.1663 10.7326 77.3096 10.4135 77.5403 10.1828C77.771 9.95208 78.0902 9.8087 78.4422 9.8087H85.357L87.1209 3.93451H76.5414L78.3506 8.6559C78.4242 8.84938 78.327 9.06638 78.1331 9.13999C77.9396 9.21361 77.7226 9.11647 77.649 8.92254L75.6519 3.71022C75.647 3.69892 75.6425 3.68762 75.6386 3.67586L74.5178 0.751035H72.3523L72.351 0.751121ZM83.9571 13.2154C84.4166 13.2154 84.7897 13.588 84.7897 14.0476C84.7897 14.5076 84.4171 14.8802 83.9571 14.8802C83.4975 14.8802 83.1249 14.5076 83.1249 14.0476C83.1249 13.588 83.4975 13.2154 83.9571 13.2154V13.2154ZM78.9087 13.2154C79.3683 13.2154 79.7408 13.588 79.7408 14.0476C79.7408 14.5076 79.3683 14.8802 78.9087 14.8802C78.4487 14.8802 78.0761 14.5076 78.0761 14.0476C78.0761 13.588 78.4487 13.2154 78.9087 13.2154V13.2154Z" fill="white"/>
<path fill-rule="evenodd" clip-rule="evenodd" d="M42.5002 3.26688C42.9151 2.54969 43.3544 1.98246 43.8795 1.56435C44.589 0.999628 45.4296 0.717285 46.5397 0.717285C47.7709 0.717285 48.886 1.21493 49.693 2.01851C50.5008 2.82194 51 3.93296 51 5.15792C51 8.06687 49.1057 9.50311 46.5901 11.4098C45.4195 12.2971 44.1084 13.2908 42.798 14.5954C42.6339 14.7579 42.3672 14.7579 42.2031 14.5954C40.8928 13.2909 39.5816 12.2963 38.4117 11.409C35.8945 9.50279 34 8.0659 34 5.15781C34 3.93289 34.4999 2.82184 35.307 2.0184C36.114 1.21497 37.2291 0.717321 38.4603 0.717321C39.5704 0.717321 40.411 0.999674 41.1205 1.56438C41.6456 1.98336 42.0849 2.55045 42.4998 3.26691L42.5002 3.26688ZM44.403 2.21614C43.8256 2.67522 43.3544 3.3858 42.8755 4.33919C42.8359 4.41718 42.7728 4.48324 42.6878 4.52518C42.4817 4.62827 42.2292 4.54439 42.1257 4.33919C41.6468 3.38483 41.1747 2.67522 40.5991 2.21614C40.0454 1.77545 39.3695 1.55508 38.4607 1.55508C37.4618 1.55508 36.5562 1.9589 35.9023 2.6107C35.2476 3.26264 34.842 4.16328 34.842 5.15778C34.842 7.65379 36.5941 8.98159 38.9212 10.7447C40.0279 11.5841 41.259 12.5176 42.5004 13.7115C43.7417 12.5176 44.973 11.5843 46.0805 10.7455C48.4065 8.9818 50.1586 7.65293 50.1586 5.15788C50.1586 4.16342 49.7538 3.26264 49.0983 2.61081C48.4444 1.95901 47.5388 1.55519 46.5399 1.55519C45.6299 1.55519 44.9549 1.77555 44.4029 2.21625L44.403 2.21614Z" fill="white"/>
<path d="M7.15834 0.912601C7.15834 1.0872 7.03135 1.23002 6.85674 1.24597C3.36487 1.3888 0.634857 4.24581 0.634857 7.73768C0.634857 9.76931 1.57129 11.6581 3.17446 12.8961V10.4359C3.17446 10.2613 3.31728 10.1185 3.49187 10.1185C3.66647 10.1185 3.80929 10.2613 3.80929 10.4359V13.6103C3.80929 13.7849 3.66646 13.9278 3.49187 13.9278H0.317443C0.142844 13.9278 2.83275e-05 13.7849 2.83275e-05 13.6103C2.83275e-05 13.4357 0.142852 13.2929 0.317443 13.2929H2.65065C0.984045 11.9437 0 9.89629 0 7.73768C0 3.89662 2.99983 0.769808 6.82502 0.595215C6.99962 0.595215 7.14244 0.738039 7.15828 0.912629L7.15834 0.912601ZM11.6343 2.1824H13.9675C14.1421 2.1824 14.2849 2.03958 14.2849 1.86499C14.2849 1.69039 14.1421 1.54757 13.9675 1.54757H10.7931C10.6185 1.54757 10.4756 1.6904 10.4756 1.86499V5.03941C10.4756 5.21401 10.6185 5.35683 10.7931 5.35683C10.9677 5.35683 11.1105 5.214 11.1105 5.03941V2.5792C12.7135 3.81723 13.6501 5.70602 13.6501 7.73765C13.6501 11.2136 10.9359 14.0706 7.45993 14.2452C7.28534 14.2611 7.14252 14.404 7.15834 14.5786C7.17417 14.7532 7.30116 14.8802 7.47575 14.8802H7.49158C11.3009 14.6897 14.2849 11.5629 14.2849 7.73773C14.2849 5.57912 13.3008 3.53162 11.6342 2.18249L11.6343 2.1824Z" fill="white"/>
</svg>
